HIERARCHY
ROOT Hips
{
	OFFSET 0.000000 0.000000 0.000000 
	CHANNELS 6 Xposition Yposition Zposition Yrotation Zrotation Xrotation 
	JOINT Lumbar
	{
		OFFSET 0.000000 0.000000 0.000000 
		CHANNELS 3 Zrotation Xrotation Yrotation
		JOINT Neck
		{
			OFFSET 0.000000 0.445665 0.000000 
			CHANNELS 3 Zrotation Xrotation Yrotation
			End Site
			{
				OFFSET 0.000000 0.227535 0.000000 
			}
		}
		JOINT RightShoulder
		{
			OFFSET 0.019635 0.377685 0.194865 
			CHANNELS 3 Zrotation Xrotation Yrotation
			JOINT RightElbow
			{
				OFFSET 0.000000 -0.243375 0.000000 
				CHANNELS 2 Zrotation Yrotation
				JOINT RightWrist
				{
					OFFSET 0.000000 -0.264825 0.000000 
					CHANNELS 2 Zrotation Xrotation
					End Site
					{
						OFFSET 0.006600 -0.176220 0.000990 
					}
				}
			}
		}
		JOINT LeftShoulder
		{
			OFFSET 0.019635 0.377685 -0.194865 
			CHANNELS 3 Zrotation Xrotation Yrotation
			JOINT LeftElbow
			{
				OFFSET 0.000000 -0.243375 0.000000 
				CHANNELS 2 Zrotation Yrotation
				JOINT LeftWrist
				{
					OFFSET 0.000000 -0.264825 0.000000 
					CHANNELS 2 Zrotation Xrotation
					End Site
					{
						OFFSET 0.006600 -0.176220 -0.000990 
					}
				}
			}
		}
	}
	JOINT RightHip
	{
		OFFSET 0.052140 -0.069960 0.075570 
		CHANNELS 3 Zrotation Xrotation Yrotation
		JOINT RightKnee
		{
			OFFSET 0.000000 -0.402270 0.000000 
			CHANNELS 1 Zrotation
			JOINT RightAnkle
			{
				OFFSET 0.000000 -0.404085 0.000000 
				CHANNELS 3 Zrotation Xrotation Yrotation
				End Site
				{
					OFFSET 0.204105 -0.089430 0.008415 
				}
			}
		}
	}
	JOINT LeftHip
	{
		OFFSET 0.052140 -0.069960 -0.075570 
		CHANNELS 3 Zrotation Xrotation Yrotation
		JOINT LeftKnee
		{
			OFFSET 0.000000 -0.402270 0.000000 
			CHANNELS 1 Zrotation
			JOINT LeftAnkle
			{
				OFFSET 0.000000 -0.404085 0.000000 
				CHANNELS 3 Zrotation Xrotation Yrotation
				End Site
				{
					OFFSET 0.204105 -0.089430 -0.008415 
				}
			}
		}
	}
}
MOTION
Frames: 33
Frame Time: 0.02
0.1014 0.00473 -0.12269 -160.24368 -41.56647 -0.96298 49.24256 2.68009 -2.82154 -1.97173 7.12358 -0.82986 30.09601 -46.11893 -25.9357 94.7685 82.40409 1.39569 -2.62632 -17.93944 14.08622 14.23158 122.97491 -95.77161 11.42039 0.0481 47.52603 -0.34683 -7.95679 -20.3825 -6.71382 -2.78055 -2.08264 49.54938 3.78814 2.14339 -24.78562 -7.16633 1.76952 1.56295
0.1012 0.00478 -0.12268 -160.78211 -41.81832 -0.99394 49.26705 2.76202 -3.36496 -1.76559 7.70016 -0.82993 32.56308 -47.64593 -27.80474 93.82118 82.24059 1.54418 -2.81998 -18.89768 13.57739 15.46414 123.39109 -98.63651 12.91373 -0.23526 47.79116 -0.41569 -8.30737 -20.37289 -6.71227 -2.65433 -2.01534 49.73498 3.84616 2.46739 -24.79376 -7.15175 1.80839 1.57962
0.101 0.00481 -0.12266 -161.37107 -42.09744 -1.0118 49.30943 2.89753 -3.90665 -1.46753 8.10548 -0.83002 35.02878 -48.80542 -29.61176 92.80619 81.99192 1.5518 -3.00382 -19.79163 12.95762 16.71653 123.79336 -102.08339 14.587 -0.60402 48.09188 -0.48811 -8.591 -20.36201 -6.71849 -2.52758 -1.94858 49.94203 3.91941 2.91805 -24.80321 -7.14233 1.84132 1.59091
0.10079 0.00484 -0.12264 -161.93505 -42.35932 -1.03505 49.3441 3.0077 -4.44589 -1.22372 8.58096 -0.8301 37.41535 -50.12278 -31.43835 91.83752 81.78972 1.6213 -3.18868 -20.70813 12.4249 17.93214 124.19413 -105.0816 16.09733 -0.9126 48.37141 -0.55445 -8.87746 -20.35164 -6.72081 -2.40525 -1.88379 50.13392 3.98342 3.30332 -24.81235 -7.13044 1.87712 1.60508
0.10061 0.00488 -0.12263 -162.51216 -42.64289 -1.06082 49.37649 3.12322 -5.00076 -0.92511 9.08966 -0.83019 40.15398 -51.48655 -33.30264 90.79128 81.55483 1.70311 -3.38979 -21.66122 11.73935 19.27102 124.63006 -108.86899 17.95568 -1.31312 48.67333 -0.64029 -9.28431 -20.3414 -6.72443 -2.26406 -1.80899 50.34912 4.05685 3.72007 -24.82036 -7.11876 1.91276 1.61778
0.10037 0.00491 -0.12259 -163.07216 -42.88686 -1.07822 49.4179 3.23997 -5.52162 -0.72039 9.48693 -0.83026 42.14794 -52.65951 -35.07107 89.89761 81.36758 1.7246 -3.55374 -22.5157 11.33926 20.35569 124.98811 -111.17549 19.13991 -1.5457 48.93621 -0.68662 -9.42593 -20.3307 -6.72734 -2.16218 -1.75524 50.52039 4.11425 4.10112 -24.831 -7.10801 1.94723 1.63217
0.09992 0.0049 -0.12247 -163.57194 -43.02026 -1.07511 49.48193 3.34604 -5.95247 -0.78725 9.63274 -0.83027 42.14978 -53.44206 -36.61564 89.41177 81.33501 1.61369 -3.62121 -23.16277 11.82823 20.73116 125.14138 -108.88224 18.29111 -1.24364 49.08765 -0.61673 -8.81469 -20.31824 -6.7258 -2.17311 -1.7618 50.56911 4.12574 4.36261 -24.84845 -7.09849 1.97818 1.65206
0.09941 0.00488 -0.12232 -164.05183 -43.11185 -1.06403 49.55394 3.4516 -6.34822 -0.95328 9.66916 -0.83026 41.38983 -54.0355 -38.06124 89.08931 81.35292 1.44665 -3.65069 -23.70401 12.59648 20.84941 125.21561 -105.13545 16.77728 -0.77728 49.19764 -0.50792 -7.94434 -20.30548 -6.72343 -2.22313 -1.78923 50.57231 4.12023 4.58223 -24.86848 -7.08981 2.00832 1.67384
0.09894 0.00487 -0.12219 -164.54105 -43.21879 -1.05707 49.62131 3.55768 -6.7576 -1.08144 9.74707 -0.83027 40.93438 -54.68524 -39.53546 88.71223 81.3462 1.30491 -3.69498 -24.25971 13.18768 21.08647 125.32088 -102.29601 15.65146 -0.41904 49.32303 -0.42089 -7.21613 -20.29345 -6.72182 -2.2527 -1.80566 50.5935 4.12126 4.81486 -24.88744 -7.08082 2.03994 1.69506
0.09842 0.00486 -0.12205 -165.03244 -43.34169 -1.04788 49.69442 3.66396 -7.17701 -1.17827 9.85601 -0.83027 40.65165 -55.44979 -41.07653 88.24721 81.34354 1.15875 -3.74947 -24.95137 13.98146 21.31738 125.44486 -98.45818 14.17754 0.07412 49.46369 -0.31683 -6.38412 -20.27901 -6.71879 -2.29336 -1.82839 50.62607 4.12794 5.07746 -24.90611 -7.07162 2.0669 1.71494
0.09799 0.00483 -0.12192 -165.51195 -43.42158 -1.04118 49.75616 3.76959 -7.5669 -1.36223 9.87368 -0.83027 39.83259 -55.93202 -42.4557 88.00824 81.34563 1.01085 -3.77361 -25.3404 14.42746 21.49832 125.51305 -96.31888 13.25896 0.33046 49.56286 -0.23881 -5.70596 -20.26933 -6.71849 -2.32046 -1.84309 50.62477 4.11847 5.2658 -24.92585 -7.0631 2.10316 1.73801
0.09779 0.00475 -0.12181 -165.97894 -43.38831 -1.04705 49.79398 3.868 -7.88662 -1.78742 9.69134 -0.8303 37.67993 -55.70814 -43.41129 88.32685 81.34747 0.8661 -3.72446 -24.87692 13.79102 21.61506 125.43098 -99.46542 14.1152 -0.14244 49.55214 -0.24343 -5.53116 -20.2747 -6.72543 -2.29871 -1.82929 50.53328 4.06966 5.26065 -24.94904 -7.05537 2.16761 1.77034
0.0977 0.00465 -0.12172 -166.43091 -43.31399 -1.05511 49.81843 3.96634 -8.17745 -2.29253 9.41687 -0.83033 35.02076 -55.20341 -44.20742 88.87226 81.35248 0.72225 -3.64557 -24.12019 12.80574 21.68778 125.29829 -104.32579 15.53742 -0.85298 49.50195 -0.27535 -5.51813 -20.28454 -6.7352 -2.26234 -1.80693 50.41075 4.00496 5.18114 -24.97295 -7.04847 2.241 1.80565
0.09758 0.00456 -0.12163 -166.88009 -43.26126 -1.05973 49.84243 4.06829 -8.47956 -2.74533 9.16914 -0.83037 32.61943 -54.81126 -45.07787 89.33221 81.35773 0.58385 -3.57996 -23.52683 12.01574 21.77395 125.19924 -108.23833 16.64828 -1.43042 49.47317 -0.29392 -5.42083 -20.29113 -6.74396 -2.23384 -1.78926 50.30727 3.94662 5.13441 -24.99583 -7.04175 2.30885 1.83906
0.09737 0.00445 -0.12152 -167.37161 -43.1944 -1.07419 49.89339 4.15593 -8.7878 -3.26962 8.98219 -0.8304 30.07605 -54.47581 -45.93864 89.72511 81.35955 0.42306 -3.51535 -22.80525 11.07947 21.88065 125.05321 -112.80499 17.96553 -2.10548 49.42818 -0.31506 -5.35783 -20.30282 -6.75148 -2.20144 -1.76889 50.18083 3.89101 5.09138 -25.02197 -7.03262 2.38307 1.87494
0.09737 0.00439 -0.12146 -167.76859 -43.14813 -1.06905 49.88601 4.27237 -9.07744 -3.66198 8.64718 -0.83043 27.71658 -53.95808 -46.78092 90.30733 81.3662 0.30438 -3.44042 -22.27924 10.36239 21.93523 124.99317 -116.44625 18.99483 -2.63913 49.4083 -0.33791 -5.26772 -20.30498 -6.7623 -2.17331 -1.75189 50.09608 3.82654 5.02251 -25.04122 -7.02877 2.44594 1.90621
0.09791 0.00449 -0.12153 -167.93359 -43.16545 -1.00687 49.7113 4.47655 -9.31737 -3.67703 7.93541 -0.83045 26.00424 -53.00653 -47.62886 91.3747 81.4036 0.34843 -3.35912 -22.39188 10.32605 21.87632 125.19024 -117.02189 19.10286 -2.69576 49.46558 -0.35834 -5.04231 -20.27965 -6.7813 -2.15955 -1.74591 50.12808 3.73835 4.90928 -25.04314 -7.03863 2.47713 1.92514
0.09865 0.00465 -0.12167 -167.99893 -43.2054 -0.92534 49.47996 4.70799 -9.54042 -3.55535 7.07675 -0.83047 24.49399 -51.88176 -48.46037 92.62099 81.4404 0.42588 -3.26608 -22.70591 10.52256 21.76365 125.47414 -116.63068 18.90264 -2.60782 49.5497 -0.37973 -4.78889 -20.24466 -6.80354 -2.1507 -1.74364 50.20412 3.64251 4.77137 -25.03775 -7.05388 2.49621 1.93907
0.0993 0.00478 -0.12179 -168.09381 -43.23779 -0.85434 49.2809 4.92181 -9.77532 -3.49084 6.27944 -0.83049 22.88687 -50.83716 -49.28901 93.77231 81.46749 0.4584 -3.16861 -22.91208 10.6178 21.66455 125.71454 -116.74978 18.83873 -2.60568 49.62338 -0.40131 -4.56375 -20.21413 -6.82446 -2.13994 -1.73973 50.26451 3.55223 4.63894 -25.03441 -7.06709 2.51973 1.95459
0.09997 0.00492 -0.12184 -168.2562 -43.2586 -0.77625 49.05425 5.15847 -9.99291 -3.44805 5.50099 -0.83051 21.28884 -49.77778 -50.15788 94.98774 81.54391 0.61872 -3.11048 -23.18142 10.68276 21.61142 125.97221 -116.63085 18.80988 -2.52755 49.68966 -0.42161 -4.27987 -20.18328 -6.8449 -2.12693 -1.73511 50.30661 3.45238 4.52727 -25.03636 -7.07859 2.54828 1.97324
0.10064 0.00506 -0.12206 -168.25256 -43.30773 -0.70811 48.87116 5.3531 -10.24123 -3.32915 4.65041 -0.83052 19.71904 -48.71014 -50.93837 96.11113 81.50855 0.51802 -2.96906 -23.36518 10.86944 21.44811 126.21267 -116.75282 18.62779 -2.56945 49.77645 -0.44391 -4.10781 -20.15094 -6.86698 -2.12049 -1.73326 50.39612 3.37114 4.36851 -25.02566 -7.09494 2.56307 1.98396
0.10126 0.00522 -0.12271 -167.8318 -43.44433 -0.67374 48.82772 5.43294 -10.59237 -3.01029 3.63048 -0.83053 18.24672 -47.67669 -51.50267 96.91751 81.24425 -0.28529 -2.59195 -23.31492 11.34557 21.0139 126.40654 -117.78139 18.08945 -2.98211 49.92906 -0.47609 -4.26708 -20.11509 -6.8937 -2.12625 -1.73539 50.61946 3.34056 4.07691 -24.98103 -7.12337 2.54534 1.97552
0.10188 0.00538 -0.12353 -167.2446 -43.60613 -0.64976 48.82912 5.46809 -10.97199 -2.62345 2.54494 -0.83052 16.78628 -46.63919 -51.97445 97.62684 80.85538 -1.35527 -2.13338 -23.16452 11.93537 20.46741 126.57628 -119.06534 17.40349 -3.51698 50.09871 -0.50931 -4.53644 -20.07839 -6.92178 -2.13936 -1.74069 50.88662 3.32946 3.74062 -24.92409 -7.15649 2.5137 1.95899
0.1025 0.00554 -0.12427 -166.72215 -43.74683 -0.61995 48.80644 5.51848 -11.33041 -2.28263 1.49353 -0.83053 15.277 -45.59601 -52.47439 98.39279 80.46776 -2.32301 -1.71762 -23.0263 12.46886 19.95899 126.74272 -120.23474 16.79155 -3.99426 50.25038 -0.53888 -4.74396 -20.04314 -6.94864 -2.15235 -1.74645 51.12489 3.31127 3.43118 -24.87327 -7.1875 2.48666 1.94511
0.10312 0.00571 -0.125 -166.24093 -43.92887 -0.59402 48.79736 5.59117 -11.72554 -1.87339 0.41747 -0.83053 13.9551 -44.58021 -53.03429 99.115 80.30237 -3.21805 -1.27615 -23.03123 13.03231 19.50224 126.97215 -121.41049 16.15169 -4.48218 50.44595 -0.58177 -4.99925 -20.00294 -6.97814 -2.15213 -1.74446 51.40252 3.28559 3.09391 -24.81987 -7.21872 2.4663 1.93527
0.10374 0.00585 -0.1258 -165.63719 -44.03067 -0.56287 48.77142 5.60649 -12.04812 -1.5921 -0.61931 -0.83053 12.24657 -43.50639 -53.44502 99.89954 79.65893 -4.31767 -0.87011 -22.71713 13.55432 18.91333 127.06385 -122.58913 15.52412 -4.97021 50.55408 -0.59732 -5.18307 -19.97315 -7.00241 -2.18082 -1.75915 51.60807 3.27996 2.80345 -24.76917 -7.25043 2.4291 1.91532
0.10438 0.00594 -0.12675 -164.72313 -43.90325 -0.51385 48.68769 5.47378 -12.18954 -1.68281 -1.54399 -0.83055 9.4403 -42.29514 -53.48798 100.90541 77.59848 -6.01114 -0.57261 -21.49996 13.95654 17.97467 126.77871 -124.20837 15.09417 -5.50566 50.41386 -0.53552 -5.12922 -19.97069 -7.01208 -2.28983 -1.82058 51.60305 3.32755 2.66137 -24.72747 -7.28318 2.34687 1.86816
0.10501 0.00599 -0.12778 -163.69467 -43.69449 -0.45956 48.5859 5.28489 -12.25206 -1.90482 -2.42361 -0.83057 6.25038 -41.02305 -53.37984 101.97025 75.0825 -7.88589 -0.31528 -19.97375 14.3058 16.90933 126.35655 -125.73807 14.6598 -6.02555 50.18549 -0.44642 -5.0023 -19.97901 -7.01638 -2.42715 -1.89837 51.52394 3.39429 2.56672 -24.68918 -7.31607 2.24859 1.81139
0.10565 0.00605 -0.12877 -162.72713 -43.52372 -0.40825 48.49267 5.12186 -12.3338 -2.06617 -3.31517 -0.83059 3.25082 -39.76468 -53.32714 102.99224 72.86185 -9.61351 -0.04574 -18.61753 14.66598 15.91047 125.99733 -126.98353 14.14477 -6.49989 49.99906 -0.37089 -4.9177 -19.98359 -7.02297 -2.55004 -1.96771 51.479 3.45043 2.44489 -24.65034 -7.3483 2.15896 1.75989
0.10631 0.00614 -0.12978 -161.71496 -43.34906 -0.35449 48.39899 4.95567 -12.48722 -2.22963 -4.24587 -0.83061 0.17716 -38.56246 -53.328 104.08452 70.2744 -11.61549 0.25189 -17.1297 15.09399 14.87054 125.63143 -129.59214 13.97164 -7.19134 49.80506 -0.29062 -4.79831 -19.98351 -7.03021 -2.68002 -2.04155 51.43336 3.51482 2.34451 -24.60697 -7.38323 2.0631 1.7043
0.1069 0.00616 -0.13075 -160.7721 -43.16341 -0.30487 48.302 4.7836 -12.47167 -2.4203 -5.08256 -0.83063 -2.82459 -37.23195 -53.18142 105.0384 68.33134 -13.09596 0.48075 -15.84831 15.3563 13.88693 125.25103 -129.35834 13.08952 -7.43687 49.60596 -0.21357 -4.7328 -19.99538 -7.03487 -2.80158 -2.10971 51.37121 3.56689 2.21223 -24.57385 -7.41248 1.9766 1.65504
0.10727 0.00597 -0.13162 -160.03794 -42.96243 -0.26407 48.19498 4.60659 -12.01327 -2.6591 -5.67743 -0.83064 -5.61039 -35.53709 -52.67519 105.65878 68.39474 -12.99924 0.52611 -15.17508 15.26601 13.09446 124.83108 -121.1273 10.23685 -6.35201 49.41185 -0.15352 -4.83197 -20.04052 -7.03326 -2.89543 -2.15936 51.27957 3.57517 1.97272 -24.56973 -7.42608 1.91997 1.62578
0.10756 0.00571 -0.13246 -159.38022 -42.75398 -0.22822 48.08608 4.42628 -11.3866 -2.92037 -6.17729 -0.83066 -8.29661 -33.72059 -52.02432 106.12738 69.1034 -12.38571 0.50383 -14.72778 14.99631 12.36203 124.40741 -110.07991 6.67746 -4.83544 49.21602 -0.09748 -4.98787 -20.09685 -7.02931 -2.97935 -2.20248 51.17405 3.57114 1.70117 -24.57561 -7.43392 1.87339 1.60325
